HIERARCHY
ROOT Hips
{
	OFFSET 49.091099 -6.870336 95.561798
	CHANNELS 6 Xposition Yposition Zposition Xrotation Yrotation Zrotation
	JOINT spine
	{
		OFFSET 0.000000 -0.458068 7.965683
		CHANNELS 3 Xrotation Yrotation Zrotation
		JOINT spine1
		{
			OFFSET 0.000000 -0.000002 10.243103
			CHANNELS 3 Xrotation Yrotation Zrotation
			JOINT spine2
			{
				OFFSET 0.000000 -0.000001 9.814751
				CHANNELS 3 Xrotation Yrotation Zrotation
				JOINT Neck
				{
					OFFSET 0.000000 -1.201384 25.198601
					CHANNELS 3 Xrotation Yrotation Zrotation
					JOINT Head
					{
						OFFSET 0.000000 -0.000002 7.613144
						CHANNELS 3 Xrotation Yrotation Zrotation
						End Site
						{
							OFFSET 0.000000 6.077328 18.428101
						}
					}
				}
				JOINT RightShoulder
				{
					OFFSET -4.132702 0.575449 10.599205
					CHANNELS 3 Xrotation Yrotation Zrotation
					JOINT RightArm
					{
						OFFSET 0.000000 -0.000002 13.901794
						CHANNELS 3 Xrotation Yrotation Zrotation
						JOINT RightArmRoll
						{
							OFFSET 0.000000 -0.000001 7.017883
							CHANNELS 3 Xrotation Yrotation Zrotation
							JOINT RightForeArm
							{
								OFFSET 0.000000 -0.000003 20.440598
								CHANNELS 3 Xrotation Yrotation Zrotation
								JOINT RightForeArmRoll
								{
									OFFSET 0.000000 -0.000001 7.875153
									CHANNELS 3 Xrotation Yrotation Zrotation
									JOINT RightHand
									{
										OFFSET 0.000000 -0.000002 15.803696
										CHANNELS 3 Xrotation Yrotation Zrotation
										End Site
										{
											OFFSET 0.000000 0.000000 0.100006
										}
									}
								}
							}
						}
					}
				}
				JOINT LeftShoulder
				{
					OFFSET 4.132702 0.575449 10.599205
					CHANNELS 3 Xrotation Yrotation Zrotation
					JOINT LeftArm
					{
						OFFSET 0.000000 -0.000002 13.901794
						CHANNELS 3 Xrotation Yrotation Zrotation
						JOINT LeftArmRoll
						{
							OFFSET 0.000000 -0.000001 7.017883
							CHANNELS 3 Xrotation Yrotation Zrotation
							JOINT LeftForeArm
							{
								OFFSET 0.000000 -0.000003 20.440598
								CHANNELS 3 Xrotation Yrotation Zrotation
								JOINT LeftForeArmRoll
								{
									OFFSET 0.000000 -0.000001 7.875153
									CHANNELS 3 Xrotation Yrotation Zrotation
									JOINT LeftHand
									{
										OFFSET 0.000000 -0.000002 15.803696
										CHANNELS 3 Xrotation Yrotation Zrotation
										End Site
										{
											OFFSET 0.000000 0.000000 0.100006
										}
									}
								}
							}
						}
					}
				}
			}
		}
	}
	JOINT RightUpLeg
	{
		OFFSET -7.060482 1.086101 -1.294701
		CHANNELS 3 Xrotation Yrotation Zrotation
		JOINT RightUpLegRoll
		{
			OFFSET 0.000000 -0.000003 18.530800
			CHANNELS 3 Xrotation Yrotation Zrotation
			JOINT RightLeg
			{
				OFFSET 0.000000 0.000004 -22.947601
				CHANNELS 3 Xrotation Yrotation Zrotation
				JOINT RightLegRoll
				{
					OFFSET 0.000000 -0.000004 23.022598
					CHANNELS 3 Xrotation Yrotation Zrotation
					JOINT RightFoot
					{
						OFFSET 0.000000 -0.000003 19.162506
						CHANNELS 3 Xrotation Yrotation Zrotation
						JOINT RightToeBase
						{
							OFFSET 0.000000 -0.000003 16.018799
							CHANNELS 3 Xrotation Yrotation Zrotation
							End Site
							{
								OFFSET 0.006790 0.894206 7.757812
							}
						}
					}
				}
			}
		}
	}
	JOINT LeftUpLeg
	{
		OFFSET 7.060482 1.086101 -1.294701
		CHANNELS 3 Xrotation Yrotation Zrotation
		JOINT LeftUpLegRoll
		{
			OFFSET 0.000000 -0.000003 18.530899
			CHANNELS 3 Xrotation Yrotation Zrotation
			JOINT LeftLeg
			{
				OFFSET 0.000000 -0.000003 22.947502
				CHANNELS 3 Xrotation Yrotation Zrotation
				JOINT LeftLegRoll
				{
					OFFSET 0.000000 -0.000004 23.235504
					CHANNELS 3 Xrotation Yrotation Zrotation
					JOINT LeftFoot
					{
						OFFSET 0.000000 -0.000003 18.949600
						CHANNELS 3 Xrotation Yrotation Zrotation
						JOINT LeftToeBase
						{
							OFFSET 0.000000 -0.000002 16.018799
							CHANNELS 3 Xrotation Yrotation Zrotation
							End Site
							{
								OFFSET -0.030430 0.894205 7.757812
							}
						}
					}
				}
			}
		}
	}
}
MOTION
Frames: 4
Frame Time: 0.041667
74.888901 -12.864013 94.547508 -3.905254 8.167139 116.883620 -0.147913 -0.451169 1.503312 3.719430 -0.891062 3.009413 5.363661 -0.854972 3.019838 2.939637 44.213891 -4.058904 14.124770 -37.493876 -1.461663 23.655843 -21.843039 38.824858 -42.267366 -167.217866 -43.980886 0.000001 0.000007 0.000003 2.484266 -0.008393 -0.149976 -0.000010 0.000001 -3.006730 -5.000277 -7.999442 0.000180 -130.015110 81.679862 135.774530 -147.345472 107.471223 182.844219 0.000003 0.000009 -0.000002 86.449465 4.375587 5.259086 -0.000000 0.000003 3.007189 -5.000368 7.999203 -0.000225 9.760792 -182.324919 -3.390380 -179.999991 0.000006 -1.188000 168.843806 -3.216183 -0.979907 -0.000004 -0.000003 0.143926 68.572572 6.797411 2.420125 35.938444 -8.319162 -4.536980 -24.466416 187.158248 11.064813 -0.000004 -0.000005 -0.675578 -11.170046 -2.187601 0.220360 -0.000008 0.000004 -0.423999 71.801483 -7.013421 -1.561746 25.456953 7.355642 0.000286 
74.931702 -12.865314 94.568405 -3.892227 8.169678 116.988942 -0.140155 -0.457950 1.507038 3.735156 -0.904383 3.016977 5.379390 -0.868200 3.027560 3.007770 44.203417 -4.073234 14.099314 -37.445751 -1.466936 23.636689 -21.859571 38.793224 -42.032001 -167.227415 -43.857116 -0.000000 0.000006 0.000003 2.481319 -0.102166 -0.154733 -0.000009 0.000002 -3.006730 -5.000280 -7.999444 0.000180 -129.885350 81.687819 135.644620 -147.304354 107.415721 182.771409 -0.000000 0.000009 -0.000002 86.431946 4.378637 5.251048 -0.000004 0.000003 3.007189 -5.000370 7.999201 -0.000225 9.765958 -182.341626 -3.405083 -179.999991 0.000006 -1.186999 168.857166 -3.212415 -0.978389 -0.000002 -0.000003 0.143562 68.566022 6.797299 2.421412 35.979343 -8.332015 -4.582815 -24.455472 187.196320 11.078434 -0.000006 -0.000005 -0.676414 -11.173349 -2.187723 0.220939 -0.000008 0.000004 -0.424426 71.817964 -7.014946 -1.556753 25.456953 7.355640 0.000288 
74.956001 -12.871308 94.565605 -3.878792 8.174734 117.094359 -0.133036 -0.464380 1.510590 3.749601 -0.917019 3.024178 5.393832 -0.880748 3.034917 3.079246 44.191720 -4.088964 14.072836 -37.397437 -1.472451 23.616306 -21.875257 38.760415 -41.797831 -167.233152 -43.730949 -0.000000 0.000007 0.000003 2.482923 -0.195751 -0.159474 -0.000005 0.000002 -3.006721 -5.000279 -7.999439 0.000179 -129.777050 81.695319 135.536006 -147.276173 107.361729 182.711549 0.000002 0.000010 -0.000002 86.416899 4.378889 5.246433 -0.000001 0.000003 3.007191 -5.000365 7.999202 -0.000225 9.764639 -182.357404 -3.418729 -179.999991 0.000005 -1.186001 168.862726 -3.208547 -0.978302 -0.000005 -0.000003 0.143279 68.561664 6.797170 2.422554 36.022356 -8.344710 -4.626164 -24.443888 187.237151 11.093120 -0.000006 -0.000005 -0.677111 -11.171057 -2.188869 0.221398 -0.000008 0.000004 -0.424329 71.832048 -7.016381 -1.552600 25.456957 7.355640 0.000288 
74.981598 -12.872712 94.557709 -3.865003 8.182041 117.197877 -0.126524 -0.470490 1.513991 3.762836 -0.929031 3.031087 5.407061 -0.892678 3.041973 3.153846 44.178497 -4.106036 14.045370 -37.348957 -1.478308 23.595083 -21.890601 38.726606 -41.564997 -167.235788 -43.602548 -0.000000 0.000006 0.000002 2.488519 -0.289005 -0.164168 -0.000009 0.000003 -3.006720 -5.000277 -7.999442 0.000181 -129.687848 81.702545 135.446203 -147.259862 107.308904 182.663792 0.000001 0.000009 -0.000002 86.404031 4.376628 5.244856 -0.000002 0.000003 3.007200 -5.000368 7.999203 -0.000225 9.757508 -182.370258 -3.431030 -179.999991 0.000006 -1.185005 168.861373 -3.203627 -0.977412 -0.000004 -0.000003 0.143060 68.559205 6.797028 2.423577 36.067299 -8.357342 -4.667093 -24.431716 187.278036 11.109899 -0.000007 -0.000005 -0.677687 -11.163766 -2.190925 0.221751 -0.000008 0.000004 -0.423786 71.843864 -7.017800 -1.549185 25.456955 7.355641 0.000287 
